<?xml version="1.0" encoding="utf-8" standalone="no"?>
<!DOCTYPE svg PUBLIC "-//W3C//DTD SVG 1.1//EN"
  "http://www.w3.org/Graphics/SVG/1.1/DTD/svg11.dtd">
<svg xmlns:xlink="http://www.w3.org/1999/xlink" width="1088.64pt" height="664.56pt" viewBox="0 0 1088.64 664.56" xmlns="http://www.w3.org/2000/svg" version="1.1">
 <metadata>
  <rdf:RDF xmlns:dc="http://purl.org/dc/elements/1.1/" xmlns:cc="http://creativecommons.org/ns#" xmlns:rdf="http://www.w3.org/1999/02/22-rdf-syntax-ns#">
   <cc:Work>
    <dc:type rdf:resource="http://purl.org/dc/dcmitype/StillImage"/>
    <dc:date>2024-02-09T11:44:13.552847</dc:date>
    <dc:format>image/svg+xml</dc:format>
    <dc:creator>
     <cc:Agent>
      <dc:title>Matplotlib v3.8.2, https://matplotlib.org/</dc:title>
     </cc:Agent>
    </dc:creator>
   </cc:Work>
  </rdf:RDF>
 </metadata>
 <defs>
  <style type="text/css">*{stroke-linejoin: round; stroke-linecap: butt}</style>
 </defs>
 <g id="figure_1">
  <g id="patch_1">
   <path d="M 0 664.56 
L 1088.64 664.56 
L 1088.64 0 
L 0 0 
L 0 664.56 
z
" style="fill: none"/>
  </g>
  <g id="axes_1">
   <g id="patch_2">
    <path d="M 292.103989 598.104 
L 823.752011 598.104 
L 823.752011 66.456 
L 292.103989 66.456 
z
" style="fill: #ffffff"/>
   </g>
   <g id="matplotlib.axis_1">
    <g id="xtick_1">
     <g id="line2d_1">
      <defs>
       <path id="m6925b9abed" d="M 0 0 
L 0 3.5 
" style="stroke: #000000; stroke-width: 0.8"/>
      </defs>
      <g>
       <use xlink:href="#m6925b9abed" x="364.380239" y="598.104" style="stroke: #000000; stroke-width: 0.8"/>
      </g>
     </g>
     <g id="text_1">
      <!-- −10 -->
      <g transform="translate(353.827896 612.702438) scale(0.1 -0.1)">
       <defs>
        <path id="DejaVuSans-2212" d="M 678 2272 
L 4684 2272 
L 4684 1741 
L 678 1741 
L 678 2272 
z
" transform="scale(0.015625)"/>
        <path id="DejaVuSans-31" d="M 794 531 
L 1825 531 
L 1825 4091 
L 703 3866 
L 703 4441 
L 1819 4666 
L 2450 4666 
L 2450 531 
L 3481 531 
L 3481 0 
L 794 0 
L 794 531 
z
" transform="scale(0.015625)"/>
        <path id="DejaVuSans-30" d="M 2034 4250 
Q 1547 4250 1301 3770 
Q 1056 3291 1056 2328 
Q 1056 1369 1301 889 
Q 1547 409 2034 409 
Q 2525 409 2770 889 
Q 3016 1369 3016 2328 
Q 3016 3291 2770 3770 
Q 2525 4250 2034 4250 
z
M 2034 4750 
Q 2819 4750 3233 4129 
Q 3647 3509 3647 2328 
Q 3647 1150 3233 529 
Q 2819 -91 2034 -91 
Q 1250 -91 836 529 
Q 422 1150 422 2328 
Q 422 3509 836 4129 
Q 1250 4750 2034 4750 
z
" transform="scale(0.015625)"/>
       </defs>
       <use xlink:href="#DejaVuSans-2212"/>
       <use xlink:href="#DejaVuSans-31" x="83.789062"/>
       <use xlink:href="#DejaVuSans-30" x="147.412109"/>
      </g>
     </g>
    </g>
    <g id="xtick_2">
     <g id="line2d_2">
      <g>
       <use xlink:href="#m6925b9abed" x="461.154066" y="598.104" style="stroke: #000000; stroke-width: 0.8"/>
      </g>
     </g>
     <g id="text_2">
      <!-- −5 -->
      <g transform="translate(453.782973 612.702438) scale(0.1 -0.1)">
       <defs>
        <path id="DejaVuSans-35" d="M 691 4666 
L 3169 4666 
L 3169 4134 
L 1269 4134 
L 1269 2991 
Q 1406 3038 1543 3061 
Q 1681 3084 1819 3084 
Q 2600 3084 3056 2656 
Q 3513 2228 3513 1497 
Q 3513 744 3044 326 
Q 2575 -91 1722 -91 
Q 1428 -91 1123 -41 
Q 819 9 494 109 
L 494 744 
Q 775 591 1075 516 
Q 1375 441 1709 441 
Q 2250 441 2565 725 
Q 2881 1009 2881 1497 
Q 2881 1984 2565 2268 
Q 2250 2553 1709 2553 
Q 1456 2553 1204 2497 
Q 953 2441 691 2322 
L 691 4666 
z
" transform="scale(0.015625)"/>
       </defs>
       <use xlink:href="#DejaVuSans-2212"/>
       <use xlink:href="#DejaVuSans-35" x="83.789062"/>
      </g>
     </g>
    </g>
    <g id="xtick_3">
     <g id="line2d_3">
      <g>
       <use xlink:href="#m6925b9abed" x="557.927894" y="598.104" style="stroke: #000000; stroke-width: 0.8"/>
      </g>
     </g>
     <g id="text_3">
      <!-- 0 -->
      <g transform="translate(554.746644 612.702438) scale(0.1 -0.1)">
       <use xlink:href="#DejaVuSans-30"/>
      </g>
     </g>
    </g>
    <g id="xtick_4">
     <g id="line2d_4">
      <g>
       <use xlink:href="#m6925b9abed" x="654.701721" y="598.104" style="stroke: #000000; stroke-width: 0.8"/>
      </g>
     </g>
     <g id="text_4">
      <!-- 5 -->
      <g transform="translate(651.520471 612.702438) scale(0.1 -0.1)">
       <use xlink:href="#DejaVuSans-35"/>
      </g>
     </g>
    </g>
    <g id="xtick_5">
     <g id="line2d_5">
      <g>
       <use xlink:href="#m6925b9abed" x="751.475548" y="598.104" style="stroke: #000000; stroke-width: 0.8"/>
      </g>
     </g>
     <g id="text_5">
      <!-- 10 -->
      <g transform="translate(745.113048 612.702438) scale(0.1 -0.1)">
       <use xlink:href="#DejaVuSans-31"/>
       <use xlink:href="#DejaVuSans-30" x="63.623047"/>
      </g>
     </g>
    </g>
    <g id="text_6">
     <!-- x [mm] -->
     <g transform="translate(539.737375 626.380563) scale(0.1 -0.1)">
      <defs>
       <path id="DejaVuSans-78" d="M 3513 3500 
L 2247 1797 
L 3578 0 
L 2900 0 
L 1881 1375 
L 863 0 
L 184 0 
L 1544 1831 
L 300 3500 
L 978 3500 
L 1906 2253 
L 2834 3500 
L 3513 3500 
z
" transform="scale(0.015625)"/>
       <path id="DejaVuSans-20" transform="scale(0.015625)"/>
       <path id="DejaVuSans-5b" d="M 550 4863 
L 1875 4863 
L 1875 4416 
L 1125 4416 
L 1125 -397 
L 1875 -397 
L 1875 -844 
L 550 -844 
L 550 4863 
z
" transform="scale(0.015625)"/>
       <path id="DejaVuSans-6d" d="M 3328 2828 
Q 3544 3216 3844 3400 
Q 4144 3584 4550 3584 
Q 5097 3584 5394 3201 
Q 5691 2819 5691 2113 
L 5691 0 
L 5113 0 
L 5113 2094 
Q 5113 2597 4934 2840 
Q 4756 3084 4391 3084 
Q 3944 3084 3684 2787 
Q 3425 2491 3425 1978 
L 3425 0 
L 2847 0 
L 2847 2094 
Q 2847 2600 2669 2842 
Q 2491 3084 2119 3084 
Q 1678 3084 1418 2786 
Q 1159 2488 1159 1978 
L 1159 0 
L 581 0 
L 581 3500 
L 1159 3500 
L 1159 2956 
Q 1356 3278 1631 3431 
Q 1906 3584 2284 3584 
Q 2666 3584 2933 3390 
Q 3200 3197 3328 2828 
z
" transform="scale(0.015625)"/>
       <path id="DejaVuSans-5d" d="M 1947 4863 
L 1947 -844 
L 622 -844 
L 622 -397 
L 1369 -397 
L 1369 4416 
L 622 4416 
L 622 4863 
L 1947 4863 
z
" transform="scale(0.015625)"/>
      </defs>
      <use xlink:href="#DejaVuSans-78"/>
      <use xlink:href="#DejaVuSans-20" x="59.179688"/>
      <use xlink:href="#DejaVuSans-5b" x="90.966797"/>
      <use xlink:href="#DejaVuSans-6d" x="129.980469"/>
      <use xlink:href="#DejaVuSans-6d" x="227.392578"/>
      <use xlink:href="#DejaVuSans-5d" x="324.804688"/>
     </g>
    </g>
   </g>
   <g id="matplotlib.axis_2">
    <g id="ytick_1">
     <g id="line2d_6">
      <defs>
       <path id="mf26ad0913e" d="M 0 0 
L -3.5 0 
" style="stroke: #000000; stroke-width: 0.8"/>
      </defs>
      <g>
       <use xlink:href="#mf26ad0913e" x="292.103989" y="525.82779" style="stroke: #000000; stroke-width: 0.8"/>
      </g>
     </g>
     <g id="text_7">
      <!-- −10 -->
      <g transform="translate(263.999302 529.627009) scale(0.1 -0.1)">
       <use xlink:href="#DejaVuSans-2212"/>
       <use xlink:href="#DejaVuSans-31" x="83.789062"/>
       <use xlink:href="#DejaVuSans-30" x="147.412109"/>
      </g>
     </g>
    </g>
    <g id="ytick_2">
     <g id="line2d_7">
      <g>
       <use xlink:href="#mf26ad0913e" x="292.103989" y="429.053963" style="stroke: #000000; stroke-width: 0.8"/>
      </g>
     </g>
     <g id="text_8">
      <!-- −5 -->
      <g transform="translate(270.361802 432.853181) scale(0.1 -0.1)">
       <use xlink:href="#DejaVuSans-2212"/>
       <use xlink:href="#DejaVuSans-35" x="83.789062"/>
      </g>
     </g>
    </g>
    <g id="ytick_3">
     <g id="line2d_8">
      <g>
       <use xlink:href="#mf26ad0913e" x="292.103989" y="332.280135" style="stroke: #000000; stroke-width: 0.8"/>
      </g>
     </g>
     <g id="text_9">
      <!-- 0 -->
      <g transform="translate(278.741489 336.079354) scale(0.1 -0.1)">
       <use xlink:href="#DejaVuSans-30"/>
      </g>
     </g>
    </g>
    <g id="ytick_4">
     <g id="line2d_9">
      <g>
       <use xlink:href="#mf26ad0913e" x="292.103989" y="235.506308" style="stroke: #000000; stroke-width: 0.8"/>
      </g>
     </g>
     <g id="text_10">
      <!-- 5 -->
      <g transform="translate(278.741489 239.305527) scale(0.1 -0.1)">
       <use xlink:href="#DejaVuSans-35"/>
      </g>
     </g>
    </g>
    <g id="ytick_5">
     <g id="line2d_10">
      <g>
       <use xlink:href="#mf26ad0913e" x="292.103989" y="138.732481" style="stroke: #000000; stroke-width: 0.8"/>
      </g>
     </g>
     <g id="text_11">
      <!-- 10 -->
      <g transform="translate(272.378989 142.5317) scale(0.1 -0.1)">
       <use xlink:href="#DejaVuSans-31"/>
       <use xlink:href="#DejaVuSans-30" x="63.623047"/>
      </g>
     </g>
    </g>
    <g id="text_12">
     <!-- y [mm] -->
     <g transform="translate(257.919614 350.470625) rotate(-90) scale(0.1 -0.1)">
      <defs>
       <path id="DejaVuSans-79" d="M 2059 -325 
Q 1816 -950 1584 -1140 
Q 1353 -1331 966 -1331 
L 506 -1331 
L 506 -850 
L 844 -850 
Q 1081 -850 1212 -737 
Q 1344 -625 1503 -206 
L 1606 56 
L 191 3500 
L 800 3500 
L 1894 763 
L 2988 3500 
L 3597 3500 
L 2059 -325 
z
" transform="scale(0.015625)"/>
      </defs>
      <use xlink:href="#DejaVuSans-79"/>
      <use xlink:href="#DejaVuSans-20" x="59.179688"/>
      <use xlink:href="#DejaVuSans-5b" x="90.966797"/>
      <use xlink:href="#DejaVuSans-6d" x="129.980469"/>
      <use xlink:href="#DejaVuSans-6d" x="227.392578"/>
      <use xlink:href="#DejaVuSans-5d" x="324.804688"/>
     </g>
    </g>
   </g>
   <g id="line2d_11">
    <path d="M 698.232562 210.805234 
L 697.34443 183.492099 
L 710.117511 169.860421 
L 724.930485 185.133996 
L 738.217409 201.752196 
L 749.856867 219.563145 
L 759.742498 238.404089 
L 767.78397 258.102861 
L 688.302755 258.102881 
L 681.161811 246.762382 
L 673.03714 236.104528 
L 663.993634 226.214376 
L 654.103481 217.17087 
L 643.445628 209.046199 
L 632.105148 201.905216 
L 632.105129 117.298801 
L 649.970044 124.319821 
L 667.179229 132.822378 
L 683.610104 142.745879 
L 699.145614 154.019629 
L 713.675084 166.563313 
L 727.095005 180.28757 
L 739.309773 195.094628 
L 750.23237 210.878999 
L 759.784983 227.528237 
L 767.899558 244.92373 
L 774.518286 262.941553 
L 685.45772 262.941572 
L 678.240434 251.060774 
L 669.919817 239.924833 
L 660.572157 229.635853 
L 650.283177 220.288193 
L 639.147236 211.967576 
L 627.266457 204.750309 
L 627.266457 110.614555 
L 646.83515 117.713186 
L 665.689658 126.53544 
L 683.678521 137.010429 
L 700.657237 149.054009 
L 716.489416 162.569433 
L 731.047879 177.448134 
L 744.21568 193.570591 
L 755.887041 210.807294 
L 765.968208 229.019781 
L 774.378198 248.061752 
L 781.049455 267.780244 
L 682.547673 267.780244 
L 676.401282 257.084512 
L 669.339268 246.969929 
L 661.416211 237.514666 
L 652.693344 228.791799 
L 643.238081 220.868742 
L 633.123498 213.806728 
L 622.427765 207.660336 
L 622.427765 104.126025 
L 641.951215 110.571733 
L 660.842841 118.684606 
L 678.960585 128.403638 
L 696.168208 139.655747 
L 712.336316 152.35632 
L 727.343329 166.409853 
L 741.0764 181.710669 
L 753.432263 198.143712 
L 764.318005 215.585411 
L 773.65177 233.904611 
L 781.36337 252.963558 
L 787.394818 272.618936 
L 679.568065 272.618936 
L 673.423026 261.451731 
L 666.255752 250.911432 
L 658.129661 241.091332 
L 649.116678 232.078349 
L 639.296578 223.952258 
L 628.756279 216.784983 
L 617.589074 210.639964 
L 617.589093 97.81703 
L 637.068751 103.655683 
L 655.989275 111.109652 
L 674.216969 120.126253 
L 691.623047 130.641782 
L 708.084531 142.581942 
L 723.485116 155.862375 
L 737.715992 170.389249 
L 750.676614 186.059927 
L 762.275411 202.763693 
L 772.430436 220.382529 
L 781.069939 238.791953 
L 788.132879 257.861897 
L 793.569356 277.457627 
L 676.513593 277.457666 
L 671.230696 267.237471 
L 665.069171 257.521712 
L 658.076778 248.385694 
L 650.307744 239.900266 
L 641.822316 232.131232 
L 632.686298 225.138839 
L 622.970539 218.977313 
L 612.750383 213.694436 
L 612.750363 91.673363 
L 633.662817 97.415602 
L 653.990357 104.971682 
L 673.576015 114.283246 
L 692.268532 125.278382 
L 709.923547 137.872176 
L 726.404713 151.967366 
L 741.584746 167.455097 
L 755.346412 184.215758 
L 767.583431 202.119908 
L 778.201298 221.029275 
L 787.11801 240.797822 
L 794.264706 261.272879 
L 799.586191 282.296318 
L 673.378334 282.296338 
L 668.793191 272.815275 
L 663.431145 263.750949 
L 657.329753 255.166861 
L 650.531772 247.123168 
L 643.084842 239.676238 
L 635.041148 232.878257 
L 626.457061 226.776865 
L 617.392735 221.414819 
L 607.911691 216.829695 
L 607.911672 187.596625 
L 599.685897 187.596625 
" clip-path="url(#p01a933ab5f)" style="fill: none; stroke: #9c9ede; stroke-width: 1.5; stroke-linecap: square"/>
   </g>
   <g id="line2d_12">
    <path d="M 670.031256 480.179769 
L 697.34443 481.067901 
L 706.809027 491.168747 
L 691.000225 504.625527 
L 673.981677 516.515556 
L 655.908115 526.730746 
L 636.94384 535.178232 
L 636.94382 459.780311 
L 647.256614 452.779926 
L 656.952584 444.947502 
L 665.964801 436.337122 
L 674.231036 427.008238 
L 681.694211 417.025267 
L 688.302793 406.457139 
L 767.78397 406.457139 
L 760.348517 424.84192 
L 751.306154 442.491902 
L 740.728663 459.266968 
L 728.700015 475.033952 
L 715.315698 489.667688 
L 700.681962 503.052005 
L 684.914978 515.080654 
L 668.139911 525.658144 
L 650.48993 534.700507 
L 632.105148 542.13596 
L 632.105129 457.057386 
L 642.95018 449.935732 
L 653.116004 441.874193 
L 662.52141 432.937151 
L 671.091263 423.196001 
L 678.757099 412.728559 
L 685.457682 401.618447 
L 774.518306 401.618447 
L 767.721052 420.064098 
L 759.356249 437.853829 
L 749.486378 454.854714 
L 738.185188 470.939723 
L 725.53712 485.98867 
L 711.63668 499.88911 
L 696.587733 512.537178 
L 680.502723 523.838368 
L 663.501838 533.708239 
L 645.712108 542.073042 
L 627.266457 548.870277 
L 627.266457 454.273686 
L 638.647234 447.061039 
L 649.283779 438.79011 
L 659.078024 429.537157 
L 667.939666 419.387493 
L 675.787 408.434697 
L 682.547673 396.779756 
L 781.049455 396.779775 
L 774.851267 415.272154 
L 767.123427 433.179326 
L 757.920428 450.374998 
L 747.307167 466.737914 
L 735.358482 482.152688 
L 722.158633 496.510623 
L 707.800698 509.710473 
L 692.385923 521.659157 
L 676.023008 532.272418 
L 658.827336 541.475417 
L 640.920164 549.203257 
L 622.427765 555.401446 
L 622.427765 451.424994 
L 632.691676 445.267318 
L 642.372065 438.227828 
L 651.393378 430.361427 
L 659.685204 421.729511 
L 667.182827 412.399452 
L 673.827729 402.444069 
L 679.568046 391.941064 
L 787.39478 391.941084 
L 781.22325 411.990056 
L 773.303713 431.415071 
L 763.698202 450.064052 
L 752.48191 467.791011 
L 739.742638 484.457182 
L 725.58011 499.932101 
L 710.105192 514.094629 
L 693.439021 526.8339 
L 675.712061 538.050193 
L 657.063081 547.655704 
L 637.638065 555.57524 
L 617.589074 561.746809 
L 617.589093 448.50645 
L 627.012682 443.164349 
L 635.961334 437.059918 
L 644.373508 430.235127 
L 652.19137 422.736896 
L 659.361172 414.616774 
L 665.833622 405.930588 
L 671.564222 396.738054 
L 676.513574 387.102373 
L 793.569376 387.102354 
L 788.014755 407.062529 
L 780.772756 426.474248 
L 771.89647 445.195171 
L 761.450993 463.088002 
L 749.512929 480.021521 
L 736.169829 495.87154 
L 721.51955 510.52182 
L 705.66953 523.864919 
L 688.736012 535.802983 
L 670.843181 546.24846 
L 652.122258 555.124747 
L 632.710539 562.366746 
L 612.750383 567.921347 
L 612.750363 445.512733 
L 622.588675 440.197292 
L 631.916101 434.029228 
L 640.658969 427.057272 
L 648.748203 419.336508 
L 656.119892 410.927934 
L 662.715795 401.897986 
L 668.483799 392.318006 
L 673.378334 382.263682 
L 799.586191 382.263682 
L 794.606025 402.141029 
L 787.993863 421.536654 
L 779.795298 440.316817 
L 770.066865 458.35202 
L 758.875643 475.517903 
L 746.298803 491.6961 
L 732.423065 506.775055 
L 717.34411 520.650793 
L 701.165913 533.227634 
L 684.00003 544.418855 
L 665.964827 554.147289 
L 647.184664 562.345853 
L 627.789038 568.958015 
L 607.911691 573.938182 
L 607.911672 544.705092 
L 599.685897 544.705092 
L 599.685897 544.705092 
" clip-path="url(#p01a933ab5f)" style="fill: none; stroke: #cedb9c; stroke-width: 1.5; stroke-linecap: square"/>
   </g>
   <g id="line2d_13">
    <path d="M 417.623438 453.754785 
L 418.511589 481.067901 
L 405.738508 494.699598 
L 390.925534 479.426004 
L 377.63861 462.807804 
L 365.999153 444.996855 
L 356.113521 426.155911 
L 348.072049 406.457139 
L 427.553245 406.457139 
L 434.694209 417.797618 
L 442.81888 428.455472 
L 451.862385 438.345624 
L 461.752538 447.38913 
L 472.410391 455.513801 
L 483.750871 462.654784 
L 483.750871 547.261218 
L 465.885975 540.240179 
L 448.67679 531.737622 
L 432.245916 521.814121 
L 416.710406 510.540371 
L 402.180936 497.996687 
L 388.761015 484.27243 
L 376.546246 469.465372 
L 365.623649 453.681001 
L 356.071037 437.031763 
L 347.956462 419.63627 
L 341.337733 401.618447 
L 430.398299 401.618447 
L 437.615586 413.499226 
L 445.936202 424.635167 
L 455.283863 434.924147 
L 465.572842 444.271807 
L 476.708784 452.592424 
L 488.589563 459.809691 
L 488.589563 553.945464 
L 469.020869 546.846814 
L 450.166362 538.02456 
L 432.177499 527.549571 
L 415.198783 515.505991 
L 399.366604 501.990567 
L 384.80814 487.111866 
L 371.64034 470.989409 
L 359.968978 453.752706 
L 349.887812 435.540219 
L 341.477821 416.498248 
L 334.806564 396.779756 
L 433.308346 396.779775 
L 439.454738 407.475488 
L 446.516751 417.590071 
L 454.439808 427.045334 
L 463.162676 435.768201 
L 472.617938 443.691258 
L 482.732521 450.753272 
L 493.428254 456.899664 
L 493.428235 560.433994 
L 473.904804 553.988267 
L 455.013178 545.875394 
L 436.895434 536.156362 
L 419.687811 524.904253 
L 403.519704 512.20368 
L 388.512691 498.150147 
L 374.779619 482.849331 
L 362.423756 466.416288 
L 351.538014 448.974589 
L 342.20425 430.655389 
L 334.492649 411.596442 
L 328.461201 391.941064 
L 436.287954 391.941084 
L 442.432993 403.108269 
L 449.600267 413.648568 
L 457.726358 423.468668 
L 466.739341 432.481651 
L 476.559442 440.607742 
L 487.099741 447.775017 
L 498.266945 453.920036 
L 498.266926 566.74299 
L 478.787269 560.904317 
L 459.866744 553.450348 
L 441.639051 544.433747 
L 424.232973 533.918218 
L 407.771489 521.978058 
L 392.370904 508.697625 
L 378.140028 494.170751 
L 365.179406 478.500073 
L 353.580608 461.796307 
L 343.425584 444.177471 
L 334.786081 425.768047 
L 327.72314 406.698103 
L 322.286663 387.102373 
L 439.342426 387.102354 
L 444.625323 397.322529 
L 450.786849 407.038288 
L 457.779241 416.174306 
L 465.548276 424.659734 
L 474.033703 432.428768 
L 483.169721 439.421161 
L 492.885481 445.582687 
L 503.105637 450.865564 
L 503.105656 572.886637 
L 482.193202 567.144398 
L 461.865662 559.588318 
L 442.280005 550.276754 
L 423.587487 539.281618 
L 405.932472 526.687824 
L 389.451306 512.592634 
L 374.271273 497.104903 
L 360.509607 480.344242 
L 348.272588 462.440092 
L 337.654722 443.530725 
L 328.738009 423.762178 
L 321.591313 403.287121 
L 316.269828 382.263682 
L 442.477666 382.263682 
L 447.062829 391.744725 
L 452.424874 400.809051 
L 458.526267 409.393139 
L 465.324247 417.436832 
L 472.771178 424.883762 
L 480.814871 431.681743 
L 489.398958 437.783135 
L 498.463285 443.145181 
L 507.944328 447.730305 
L 507.944347 476.963394 
L 516.170123 476.963394 
" clip-path="url(#p01a933ab5f)" style="fill: none; stroke: #e7cb94; stroke-width: 1.5; stroke-linecap: square"/>
   </g>
   <g id="line2d_14">
    <path d="M 445.824763 184.38025 
L 418.511589 183.492099 
L 409.046993 173.391273 
L 424.855795 159.934473 
L 441.874342 148.044444 
L 459.947905 137.829254 
L 478.91218 129.381768 
L 478.912199 204.779709 
L 468.599405 211.780074 
L 458.903435 219.612498 
L 449.891218 228.222878 
L 441.624984 237.551762 
L 434.161809 247.534733 
L 427.553226 258.102861 
L 348.07203 258.102881 
L 355.507503 239.71808 
L 364.549866 222.068098 
L 375.127356 205.293032 
L 387.156004 189.526048 
L 400.540322 174.892312 
L 415.174057 161.507995 
L 430.941041 149.479346 
L 447.716108 138.901856 
L 465.366089 129.859493 
L 483.750871 122.42404 
L 483.750871 207.502634 
L 472.90584 214.624268 
L 462.740015 222.685807 
L 453.334609 231.622849 
L 444.764757 241.363999 
L 437.09892 251.831441 
L 430.398338 262.941553 
L 341.337694 262.941572 
L 348.134967 244.495902 
L 356.499771 226.706171 
L 366.369641 209.705286 
L 377.670832 193.620277 
L 390.3189 178.57133 
L 404.219339 164.67089 
L 419.268287 152.022822 
L 435.353296 140.721632 
L 452.354181 130.851761 
L 470.143911 122.486958 
L 488.589563 115.689723 
L 488.589563 210.286333 
L 477.208786 217.498961 
L 466.57224 225.76989 
L 456.777995 235.022843 
L 447.916353 245.172507 
L 440.06902 256.125303 
L 433.308346 267.780244 
L 334.806545 267.780244 
L 341.004752 249.287846 
L 348.732593 231.380674 
L 357.935591 214.185002 
L 368.548853 197.822086 
L 380.497537 182.407312 
L 393.697386 168.049377 
L 408.055321 154.849527 
L 423.470096 142.900843 
L 439.833012 132.287582 
L 457.028684 123.084583 
L 474.935856 115.356743 
L 493.428254 109.158554 
L 493.428235 213.135025 
L 483.164343 219.292682 
L 473.483954 226.332172 
L 464.462642 234.198573 
L 456.170815 242.830489 
L 448.673192 252.160548 
L 442.028291 262.115931 
L 436.287973 272.618936 
L 328.46122 272.618936 
L 334.632769 252.569944 
L 342.552306 233.144929 
L 352.157817 214.495948 
L 363.374109 196.768989 
L 376.113381 180.102818 
L 390.275909 164.627899 
L 405.750828 150.465371 
L 422.416999 137.7261 
L 440.143958 126.509807 
L 458.792938 116.904296 
L 478.217954 108.98476 
L 498.266945 102.813191 
L 498.266926 216.053569 
L 488.843337 221.395651 
L 479.894685 227.500082 
L 471.482512 234.324873 
L 463.66465 241.823104 
L 456.494848 249.943226 
L 450.022398 258.629412 
L 444.291798 267.821946 
L 439.342446 277.457627 
L 322.286644 277.457666 
L 327.841264 257.497471 
L 335.083263 238.085752 
L 343.959549 219.364829 
L 354.405027 201.471998 
L 366.343091 184.538479 
L 379.68619 168.68846 
L 394.33647 154.03818 
L 410.186489 140.695081 
L 427.120007 128.757017 
L 445.012839 118.31154 
L 463.733761 109.435253 
L 483.145481 102.193254 
L 503.105637 96.638653 
L 503.105656 219.047287 
L 493.267344 224.362708 
L 483.939918 230.530772 
L 475.19705 237.502728 
L 467.107817 245.223492 
L 459.736128 253.632066 
L 453.140225 262.662014 
L 447.37222 272.241994 
L 442.477686 282.296318 
L 316.269809 282.296338 
L 321.249994 262.418971 
L 327.862157 243.023346 
L 336.060721 224.243183 
L 345.789155 206.20798 
L 356.980376 189.042097 
L 369.557217 172.8639 
L 383.432954 157.784945 
L 398.511909 143.909207 
L 414.690106 131.332366 
L 431.855989 120.141145 
L 449.891193 110.412711 
L 468.671356 102.214147 
L 488.066981 95.601985 
L 507.944328 90.621818 
L 507.944347 119.854927 
L 516.170123 119.854927 
L 516.170123 119.854927 
" clip-path="url(#p01a933ab5f)" style="fill: none; stroke: #e7969c; stroke-width: 1.5; stroke-linecap: square"/>
   </g>
   <g id="line2d_15">
    <path d="M 506.33436 312.764764 
L 486.818969 332.280135 
L 471.799226 332.280135 
L 472.261244 341.932976 
L 473.318585 349.119716 
L 474.972614 356.193005 
L 477.211749 363.103396 
L 480.020337 369.802581 
L 481.45199 372.703163 
L 482.995164 375.546223 
L 484.647248 378.327445 
L 486.405068 381.043828 
L 490.224053 386.270505 
L 494.425121 391.202912 
L 501.384204 397.998254 
L 507.729741 403.059041 
L 514.510471 407.519909 
L 520.217011 410.628807 
L 526.143575 413.302648 
L 529.180938 414.469179 
L 532.263223 415.518014 
L 538.542877 417.252201 
L 541.728613 417.935753 
L 544.938833 418.497661 
L 551.415131 419.257587 
L 557.935829 419.535308 
L 567.729595 419.054849 
L 577.411973 417.505563 
L 586.866674 414.906074 
L 592.990425 412.590489 
L 595.983756 411.259636 
L 598.925429 409.81399 
L 601.810914 408.253958 
L 604.633981 406.581764 
L 607.390042 404.801358 
L 610.076251 402.916145 
L 615.227851 398.845974 
L 620.066155 394.399487 
L 626.686782 387.086289 
L 631.572854 380.461191 
L 635.834424 373.418147 
L 638.767175 367.515776 
L 641.250894 361.407296 
L 642.31738 358.284714 
L 643.26317 355.121197 
L 644.7819 348.691022 
L 645.35335 345.436363 
L 645.800329 342.161479 
L 646.323101 335.569265 
L 646.355133 328.950535 
L 645.493181 319.043893 
L 643.552513 309.291063 
L 640.556503 299.809091 
L 637.976165 293.691804 
L 636.513467 290.709215 
L 634.936654 287.783375 
L 633.246189 284.918734 
L 631.44426 282.121409 
L 629.535087 279.39622 
L 627.522424 276.745972 
L 625.40987 274.173375 
L 620.900307 269.271839 
L 616.036048 264.713385 
L 609.045004 259.202607 
L 601.551291 254.397655 
L 593.6259 250.344078 
L 587.433614 247.826333 
L 581.064851 245.781908 
L 577.823528 244.944002 
L 567.93063 243.194389 
L 564.595339 242.866345 
L 557.895958 242.588333 
L 551.188603 242.808881 
L 541.184194 244.061567 
L 531.376838 246.401077 
L 521.88423 249.799299 
L 515.784769 252.647121 
L 512.818632 254.24265 
L 509.914353 255.951541 
L 507.076383 257.772979 
L 501.622133 261.743028 
L 499.013671 263.883162 
L 496.487797 266.121502 
L 491.694183 270.877471 
L 487.261942 275.979852 
L 481.946534 283.273478 
L 477.36535 291.049297 
L 473.561768 299.233635 
L 471.247538 305.603114 
L 469.419054 312.133044 
L 468.693367 315.448419 
L 467.297037 325.537206 
L 467.091799 328.928509 
L 467.065786 335.725787 
L 467.54561 342.512032 
L 469.197611 352.598667 
L 471.942771 362.44414 
L 475.748179 371.930347 
L 478.86567 378.000446 
L 482.436412 383.821218 
L 484.389269 386.626594 
L 488.618208 392.00089 
L 490.885405 394.56168 
L 493.249067 397.034968 
L 498.249487 401.709066 
L 503.587222 406.003482 
L 512.161938 411.69481 
L 521.308054 416.413389 
L 530.915686 420.102538 
L 537.531513 421.95719 
L 540.889294 422.69538 
L 544.274868 423.304301 
L 554.546752 424.335232 
L 557.989519 424.413948 
L 564.875151 424.181013 
L 571.730106 423.435661 
L 581.874693 421.378347 
L 590.125086 418.823034 
L 598.10798 415.525775 
L 604.258015 412.364929 
L 610.156631 408.750214 
L 613.000214 406.775718 
L 615.767171 404.691442 
L 621.049706 400.204194 
L 623.556922 397.810474 
L 625.97172 395.322419 
L 630.514612 390.079852 
L 634.659784 384.510015 
L 640.095432 375.608314 
L 644.524359 366.165273 
L 647.893353 356.29429 
L 649.519347 349.523644 
L 650.139144 346.095161 
L 650.627001 342.643567 
L 651.280843 332.20202 
L 651.229437 328.71253 
L 650.730955 321.748569 
L 649.714346 314.835376 
L 647.242994 304.64124 
L 644.339762 296.384251 
L 640.695625 288.426437 
L 637.259961 282.31935 
L 633.374956 276.484005 
L 631.267435 273.679751 
L 629.051818 270.957174 
L 624.307307 265.778381 
L 621.788013 263.330526 
L 619.176668 260.980102 
L 613.694895 256.580087 
L 607.896691 252.595734 
L 598.67532 247.432349 
L 588.944383 243.308824 
L 578.820724 240.274664 
L 571.903176 238.886367 
L 568.408228 238.389355 
L 564.894951 238.026531 
L 561.3677 237.800216 
L 557.833036 237.711919 
L 554.297791 237.7611 
L 550.766611 237.945957 
L 547.243986 238.264827 
L 540.243154 239.298197 
L 533.331974 240.848088 
L 524.31423 243.697116 
L 515.616226 247.409415 
L 507.320388 251.949846 
L 501.409753 255.885038 
L 495.809645 260.257957 
L 493.137526 262.604412 
L 488.074397 267.604658 
L 485.691903 270.248325 
L 483.411679 272.981644 
L 479.166172 278.699177 
L 475.353942 284.721354 
L 470.479266 294.254421 
L 466.676624 304.263466 
L 463.99161 314.628396 
L 462.849834 321.684369 
L 462.479674 325.241407 
L 462.245869 328.811742 
L 462.150624 332.390961 
L 462.379552 339.549863 
L 462.701035 343.117604 
L 463.158059 346.671449 
L 464.471164 353.719061 
L 466.304118 360.656022 
L 469.53298 369.675733 
L 473.623396 378.338816 
L 478.536601 386.563227 
L 482.745565 392.396405 
L 487.385193 397.898752 
L 489.861829 400.514432 
L 497.882308 407.761146 
L 500.735878 409.965248 
L 506.685146 414.044768 
L 512.926399 417.67367 
L 522.762292 422.243332 
L 533.038901 425.709929 
L 543.632986 428.031857 
L 550.818579 428.918673 
L 558.055577 429.258949 
L 561.681808 429.219504 
L 568.919407 428.716009 
L 572.518387 428.25492 
L 576.09807 427.657091 
L 583.181237 426.059238 
L 590.132307 423.939156 
L 600.238779 419.813641 
L 609.832985 414.606701 
L 618.799618 408.380905 
L 624.372126 403.68513 
L 627.02218 401.180817 
L 629.575306 398.574988 
L 636.605286 390.182316 
L 638.727439 387.210353 
L 642.629457 381.033822 
L 646.063824 374.578891 
L 651.476346 360.985866 
L 654.858146 346.735997 
L 655.754039 339.459921 
L 656.102077 332.133755 
L 656.066522 328.463879 
L 655.889039 324.795744 
L 655.104803 317.490133 
L 654.501341 313.865412 
L 653.760073 310.265561 
L 651.873099 303.158472 
L 649.462289 296.205137 
L 644.901132 286.135364 
L 639.265389 276.62524 
L 632.622791 267.788954 
L 627.658662 262.328742 
L 625.023685 259.742384 
L 622.289921 257.257774 
L 613.530264 250.462355 
L 610.442114 248.427898 
L 604.043467 244.714706 
L 597.380628 241.485828 
L 586.976938 237.576417 
L 578.013568 235.19998 
L 568.870826 233.650786 
L 561.474112 233.021698 
L 554.047844 232.948286 
L 550.335832 233.123737 
L 546.631136 233.442548 
L 539.268545 234.513196 
L 535.623733 235.261567 
L 532.009463 236.148596 
L 524.890257 238.328698 
L 517.946832 241.033352 
L 507.932507 246.033186 
L 498.525315 252.098675 
L 489.838197 259.156961 
L 484.502649 264.387586 
L 481.986007 267.151834 
L 479.576029 270.01212 
L 477.277244 272.965792 
L 475.09511 276.008149 
L 473.032879 279.132782 
L 471.091867 282.334621 
L 469.273449 285.608635 
L 466.009209 292.353345 
L 463.250768 299.326847 
L 460.375386 308.917351 
L 458.446119 318.742013 
L 457.481267 328.70771 
L 457.406906 336.224404 
L 457.900646 343.729641 
L 458.36369 347.465478 
L 459.726149 354.873785 
L 460.621752 358.532765 
L 461.656632 362.155551 
L 464.133365 369.274718 
L 467.134418 376.195847 
L 472.575195 386.13585 
L 479.070567 395.421055 
L 486.542622 403.940051 
L 492.037169 409.138567 
L 494.929255 411.579377 
L 497.914147 413.908743 
L 500.98927 416.122057 
L 507.389117 420.181932 
L 510.701918 422.02377 
L 514.083137 423.738796 
L 521.030375 426.783765 
L 528.189838 429.308052 
L 538.001218 431.850389 
L 548.013291 433.426844 
L 558.131196 434.022524 
L 565.737696 433.811345 
L 573.31079 433.026644 
L 577.072021 432.416505 
L 588.181521 429.712489 
L 591.806804 428.527919 
L 598.913603 425.751575 
L 605.799835 422.451975 
L 615.646399 416.568981 
L 624.790433 409.64442 
L 633.122319 401.761363 
L 638.171299 396.005739 
L 640.5302 392.987751 
L 642.772895 389.880246 
L 644.894913 386.686129 
L 648.758743 380.05869 
L 650.495872 376.63789 
L 652.101834 373.152678 
L 654.917023 366.010034 
L 657.197014 358.672507 
L 659.393642 348.651867 
L 660.605884 338.46519 
L 660.822278 328.208919 
L 660.319035 320.523586 
L 659.237491 312.894035 
L 658.477739 309.113236 
L 655.321557 297.979543 
L 653.985652 294.358073 
L 650.9072 287.276106 
L 647.307562 280.437487 
L 638.646091 267.627438 
L 628.204079 256.202301 
L 622.378701 251.09483 
L 616.184189 246.436506 
L 612.956414 244.286501 
L 609.645878 242.261567 
L 602.796653 238.605161 
L 599.271163 236.978296 
L 595.68548 235.486605 
L 588.35494 232.911725 
L 580.84771 230.885842 
L 569.340956 228.886722 
L 557.684543 228.15883 
L 546.018481 228.710889 
L 538.299568 229.802827 
L 534.474911 230.567708 
L 530.680545 231.479472 
L 519.541161 235.093336 
L 515.929678 236.581833 
L 508.885376 239.964408 
L 502.107376 243.865128 
L 492.513006 250.628477 
L 485.11337 257.044059 
L 478.329659 264.107774 
L 473.386859 270.193029 
L 468.91196 276.633985 
L 466.860451 279.979417 
L 464.938581 283.403624 
L 461.50073 290.468074 
L 459.989587 294.094828 
L 458.617566 297.777247 
L 456.292962 305.287534 
L 454.530788 312.95568 
L 452.948774 324.666867 
L 452.657532 336.480895 
L 453.660579 348.255869 
L 455.058322 356.019104 
L 455.976938 359.857173 
L 457.042727 363.65903 
L 458.256155 367.419235 
L 459.616175 371.130221 
L 461.119054 374.785252 
L 462.761325 378.380322 
L 466.449375 385.373973 
L 470.651585 392.078367 
L 477.855855 401.520822 
L 484.624949 408.75745 
L 492.025653 415.346821 
L 498.366622 420.112448 
L 505.048874 424.391922 
L 508.509042 426.339031 
L 512.043764 428.15234 
L 519.316607 431.360412 
L 523.040793 432.750626 
L 526.815979 433.997808 
L 534.497421 436.062072 
L 542.317037 437.551421 
L 554.217474 438.703799 
L 566.172576 438.547549 
L 578.03885 437.084526 
L 585.834214 435.3761 
L 589.679444 434.301601 
L 593.482501 433.079967 
L 597.237829 431.710869 
L 604.576323 428.53721 
L 608.148497 426.740468 
L 611.65051 424.808785 
L 618.428277 420.555904 
L 624.877672 415.809226 
L 632.915661 408.760751 
L 640.230345 400.964271 
L 646.752448 392.493624 
L 651.080618 385.734959 
L 654.88863 378.665399 
L 656.587572 375.023587 
L 660.819356 363.73221 
L 661.936609 359.868476 
L 663.731164 352.024938 
L 664.938553 344.063665 
L 665.64937 331.989942 
L 665.035413 319.91091 
L 663.104108 307.971479 
L 661.080606 300.156547 
L 659.848463 296.310446 
L 658.469377 292.512596 
L 656.943215 288.768668 
L 653.457016 281.470586 
L 651.505107 277.927948 
L 649.419476 274.461432 
L 644.862706 267.772367 
L 639.818932 261.434242 
L 632.387588 253.578479 
L 624.227907 246.482196 
L 615.417121 240.212613 
L 608.420896 236.094906 
L 601.130614 232.514371 
L 597.385254 230.935255 
L 585.811782 227.085766 
L 581.864029 226.103125 
L 573.867975 224.587743 
L 565.775264 223.670676 
L 549.479384 223.624573 
L 533.335709 225.950745 
L 525.433197 227.999079 
L 517.703426 230.635101 
L 513.917344 232.173011 
L 510.191319 233.857186 
L 502.946986 237.657261 
L 499.440483 239.76455 
L 496.01616 242.004206 
L 489.429075 246.86413 
L 483.215576 252.203219 
L 474.655967 261.04138 
L 467.114977 270.763165 
L 460.683165 281.2518 
L 457.060824 288.621688 
L 455.461056 292.406009 
L 454.007068 296.25093 
L 450.555087 308.093492 
L 449.711897 312.120541 
L 448.484476 320.259104 
L 447.866013 328.472492 
L 448.071832 340.833974 
L 449.274982 351.077677 
L 451.407355 361.169 
L 453.778139 369.077377 
L 456.735857 376.788741 
L 458.433541 380.556475 
L 460.276657 384.257939 
L 464.391325 391.43515 
L 466.653897 394.898802 
L 469.047346 398.274253 
L 474.209088 404.745945 
L 479.841112 410.821406 
L 489.098928 419.134101 
L 499.210661 426.383927 
L 510.054888 432.483917 
L 517.640098 435.864188 
L 521.52487 437.337183 
L 525.465191 438.660623 
L 529.456647 439.830928 
L 533.491883 440.844402 
L 537.5631 441.700424 
L 541.664433 442.399577 
L 549.935053 443.330463 
L 558.258028 443.642675 
L 570.741039 442.963304 
L 581.046253 441.3568 
L 591.162039 438.817435 
L 599.062944 436.120813 
L 606.742644 432.83929 
L 610.485256 430.980884 
L 614.155442 428.97846 
L 621.251963 424.548947 
L 624.666028 422.131344 
L 627.985854 419.58476 
L 634.328701 414.123058 
L 640.252885 408.201022 
L 648.298958 398.529723 
L 655.238831 388.036338 
L 660.989213 376.846786 
L 664.116382 369.054287 
L 665.457241 365.073282 
L 666.645024 361.041936 
L 667.676323 356.964932 
L 669.258285 348.703215 
L 669.809063 344.532708 
L 670.201172 340.343408 
L 670.51259 331.931285 
L 670.200204 323.512814 
L 668.825915 312.351248 
L 666.37305 301.376155 
L 662.864845 290.691506 
L 659.547612 282.928542 
L 655.652311 275.434183 
L 653.490229 271.802087 
L 646.174282 261.44212 
L 643.475337 258.18481 
L 637.716308 251.984239 
L 631.507725 246.224629 
L 621.43009 238.464587 
L 610.564226 231.853244 
L 599.040473 226.469936 
L 591.048988 223.606786 
L 586.976242 222.403171 
L 582.858612 221.356039 
L 578.700937 220.468507 
L 570.294214 219.183099 
L 566.060011 218.784817 
L 561.81284 218.547914 
L 553.302801 218.55316 
L 544.810124 219.189409 
L 533.586783 221.003336 
L 522.592901 223.899609 
L 511.93259 227.850763 
L 504.216387 231.497065 
L 496.793428 235.71654 
L 493.206255 238.038125 
L 489.709739 240.499277 
L 486.310074 243.094402 
L 479.817557 248.664355 
L 473.757735 254.708926 
L 467.487731 262.034409 
L 461.846541 269.854457 
L 456.873015 278.115221 
L 452.601389 286.759837 
L 449.427033 294.732936 
L 448.069219 298.806901 
L 439.168292 298.807443 
L 439.168292 298.807443 
" clip-path="url(#p01a933ab5f)" style="fill: none; stroke: #de9ed6; stroke-width: 1.5; stroke-linecap: square"/>
   </g>
   <g id="patch_3">
    <path d="M 292.103989 598.104 
L 292.103989 66.456 
" style="fill: none; stroke: #000000; stroke-width: 0.8; stroke-linejoin: miter; stroke-linecap: square"/>
   </g>
   <g id="patch_4">
    <path d="M 823.752011 598.104 
L 823.752011 66.456 
" style="fill: none; stroke: #000000; stroke-width: 0.8; stroke-linejoin: miter; stroke-linecap: square"/>
   </g>
   <g id="patch_5">
    <path d="M 292.103989 598.104 
L 823.752011 598.104 
" style="fill: none; stroke: #000000; stroke-width: 0.8; stroke-linejoin: miter; stroke-linecap: square"/>
   </g>
   <g id="patch_6">
    <path d="M 292.103989 66.456 
L 823.752011 66.456 
" style="fill: none; stroke: #000000; stroke-width: 0.8; stroke-linejoin: miter; stroke-linecap: square"/>
   </g>
  </g>
 </g>
 <defs>
  <clipPath id="p01a933ab5f">
   <rect x="292.103989" y="66.456" width="531.648021" height="531.648"/>
  </clipPath>
 </defs>
</svg>
