<?xml version="1.0" encoding="UTF-8" standalone="no"?>
<!-- Created with Inkscape (http://www.inkscape.org/) -->

<svg
   width="210mm"
   height="297mm"
   viewBox="0 0 210 297"
   version="1.1"
   id="svg5"
   inkscape:version="1.3 (0e150ed6c4, 2023-07-21)"
   sodipodi:docname="drawing-1.svg"
   xmlns:inkscape="http://www.inkscape.org/namespaces/inkscape"
   xmlns:sodipodi="http://sodipodi.sourceforge.net/DTD/sodipodi-0.dtd"
   xmlns="http://www.w3.org/2000/svg"
   xmlns:svg="http://www.w3.org/2000/svg">
  <sodipodi:namedview
     id="namedview7"
     pagecolor="#ffffff"
     bordercolor="#ffffff"
     borderopacity="1"
     inkscape:showpageshadow="0"
     inkscape:pageopacity="0"
     inkscape:pagecheckerboard="1"
     inkscape:deskcolor="#505050"
     inkscape:document-units="mm"
     showgrid="false"
     inkscape:zoom="1.6819304"
     inkscape:cx="383.19065"
     inkscape:cy="744.08548"
     inkscape:window-width="1920"
     inkscape:window-height="1137"
     inkscape:window-x="1912"
     inkscape:window-y="-8"
     inkscape:window-maximized="1"
     inkscape:current-layer="layer1" />
  <defs
     id="defs2">
    <marker
       style="overflow:visible"
       id="ArrowWide"
       refX="0"
       refY="0"
       orient="auto-start-reverse"
       inkscape:stockid="Wide arrow"
       markerWidth="1"
       markerHeight="1"
       viewBox="0 0 1 1"
       inkscape:isstock="true"
       inkscape:collect="always"
       preserveAspectRatio="xMidYMid">
      <path
         style="fill:none;stroke:context-stroke;stroke-width:1;stroke-linecap:butt"
         d="M 3,-3 0,0 3,3"
         transform="rotate(180,0.125,0)"
         sodipodi:nodetypes="ccc"
         id="path1" />
    </marker>
    <marker
       style="overflow:visible"
       id="ArrowWideHeavy"
       refX="0"
       refY="0"
       orient="auto-start-reverse"
       inkscape:stockid="Wide, heavy arrow"
       markerWidth="1"
       markerHeight="1"
       viewBox="0 0 1 1"
       inkscape:isstock="true"
       inkscape:collect="always"
       preserveAspectRatio="xMidYMid">
      <path
         style="fill:context-stroke;fill-rule:evenodd;stroke:none"
         d="m 1,0 -3,3 h -2 l 3,-3 -3,-3 h 2 z"
         id="path3" />
    </marker>
    <marker
       style="overflow:visible"
       id="ArrowTriangleStylized"
       refX="0"
       refY="0"
       orient="auto-start-reverse"
       inkscape:stockid="Stylized triangle arrow"
       markerWidth="1"
       markerHeight="1"
       viewBox="0 0 1 1"
       inkscape:isstock="true"
       inkscape:collect="always"
       preserveAspectRatio="xMidYMid">
      <path
         transform="scale(0.5)"
         style="fill:context-stroke;fill-rule:evenodd;stroke:context-stroke;stroke-width:1pt"
         d="m 6,0 c -3,1 -7,3 -9,5 0,0 0,-4 2,-5 -2,-1 -2,-5 -2,-5 2,2 6,4 9,5 z"
         id="path8" />
    </marker>
    <marker
       style="overflow:visible"
       id="marker1141"
       refX="0"
       refY="0"
       orient="auto-start-reverse"
       inkscape:stockid="TriangleStart"
       markerWidth="4"
       markerHeight="4.62427747"
       viewBox="0 0 5.3244081 6.1553851"
       inkscape:isstock="true"
       inkscape:collect="always"
       preserveAspectRatio="xMidYMid">
      <path
         transform="scale(0.5)"
         style="fill:context-stroke;fill-rule:evenodd;stroke:context-stroke;stroke-width:1pt"
         d="M 5.77,0 -2.88,5 V -5 Z"
         id="path1139" />
    </marker>
    <marker
       style="overflow:visible"
       id="TriangleStart"
       refX="0"
       refY="0"
       orient="8.00"
       inkscape:stockid="TriangleStart"
       markerWidth="4"
       markerHeight="4.62427747"
       viewBox="0 0 5.3244081 6.1553851"
       inkscape:isstock="true"
       inkscape:collect="always"
       preserveAspectRatio="xMidYMid">
      <path
         style="fill:context-stroke;fill-rule:evenodd;stroke:context-stroke;stroke-width:0.5pt"
         d="m -1.1072586,0 4.325,2.5 v -5 z"
         id="path135" />
    </marker>
  </defs>
  <g
     inkscape:label="Layer 1"
     inkscape:groupmode="layer"
     id="layer1">
    <path
       style="fill:none;stroke:#502d16;stroke-width:1;stroke-linecap:round;stroke-dasharray:3, 3;stroke-dashoffset:0"
       d="m 110.36122,162.2755 v 79.37507"
       id="path34" />
    <ellipse
       style="fill:none;stroke:#000000;stroke-width:1.2;stroke-linecap:round;stroke-dasharray:none"
       id="path1-96"
       cx="86.49894"
       cy="151.75121"
       rx="31.304554"
       ry="16.259552" />
    <path
       style="fill:none;stroke:#502d16;stroke-width:1.2;stroke-linecap:round;stroke-dasharray:2.40000009,2.40000009;marker-start:url(#marker1141);stroke-dashoffset:0"
       id="path1-96-3-2"
       sodipodi:type="arc"
       sodipodi:cx="86.49894"
       sodipodi:cy="231.12628"
       sodipodi:rx="19.799011"
       sodipodi:ry="10.517762"
       sodipodi:start="0.88996605"
       sodipodi:end="2.0278684"
       sodipodi:arc-type="arc"
       d="m 98.961198,239.29911 a 19.799011,10.517762 0 0 1 -21.20001,1.26527"
       sodipodi:open="true" />
    <ellipse
       style="font-variation-settings:normal;opacity:1;vector-effect:none;fill:none;fill-opacity:1;stroke:#000000;stroke-width:0.799999;stroke-linecap:round;stroke-linejoin:miter;stroke-miterlimit:4;stroke-dasharray:none;stroke-dashoffset:0;stroke-opacity:1;-inkscape-stroke:none;stop-color:#000000;stop-opacity:1"
       id="path296"
       cx="104.98903"
       cy="42.527683"
       rx="26.80751"
       ry="28.476028"
       inkscape:export-filename="partialV.png"
       inkscape:export-xdpi="264.8197"
       inkscape:export-ydpi="264.8197" />
    <ellipse
       style="font-variation-settings:normal;vector-effect:none;fill:#37abc8;fill-opacity:1;stroke:#d45500;stroke-width:0.799999;stroke-linecap:round;stroke-linejoin:miter;stroke-miterlimit:4;stroke-dasharray:none;stroke-dashoffset:0;stroke-opacity:1;-inkscape-stroke:none;marker-start:url(#marker1141);stop-color:#000000"
       id="path296-7"
       cx="1.4346596"
       cy="57.293266"
       rx="27.908676"
       ry="27.436749"
       transform="rotate(-39.668282)"
       inkscape:export-filename="partialA.png"
       inkscape:export-xdpi="265.57007"
       inkscape:export-ydpi="265.57007" />
    <path
       style="font-variation-settings:normal;vector-effect:none;fill:none;fill-opacity:1;stroke:#000000;stroke-width:0.799999;stroke-linecap:round;stroke-linejoin:miter;stroke-miterlimit:4;stroke-dasharray:none;stroke-dashoffset:0;stroke-opacity:1;-inkscape-stroke:none;stop-color:#000000"
       id="path296-0"
       d="m 120.90447,14.051687 a 26.80751,28.476028 0 0 1 23.24369,14.364114 26.80751,28.476028 0 0 1 -0.18572,28.564034 26.80751,28.476028 0 0 1 -23.42823,14.021721"
       sodipodi:type="arc"
       sodipodi:arc-type="arc"
       sodipodi:open="true"
       sodipodi:start="4.713898"
       sodipodi:end="1.5830997"
       sodipodi:ry="28.476028"
       sodipodi:rx="26.80751"
       sodipodi:cy="42.527683"
       sodipodi:cx="120.86402" />
    <path
       style="font-variation-settings:normal;opacity:1;vector-effect:none;fill:none;fill-opacity:1;stroke:#000000;stroke-width:0.799999;stroke-linecap:round;stroke-linejoin:miter;stroke-miterlimit:4;stroke-dasharray:none;stroke-dashoffset:0;stroke-opacity:1;-inkscape-stroke:none;stop-color:#000000;stop-opacity:1"
       d="m 104.98902,14.051653 h 15.875"
       id="path616"
       sodipodi:nodetypes="cc" />
    <path
       style="font-variation-settings:normal;opacity:1;vector-effect:none;fill:none;fill-opacity:1;stroke:#000000;stroke-width:0.799999;stroke-linecap:round;stroke-linejoin:miter;stroke-miterlimit:4;stroke-dasharray:none;stroke-dashoffset:0;stroke-opacity:1;-inkscape-stroke:none;stop-color:#000000;stop-opacity:1"
       d="m 120.86402,71.003706 h -15.875"
       id="path618" />
    <path
       style="font-variation-settings:normal;opacity:1;fill:#37abc8;fill-opacity:1;stroke:#000000;stroke-width:0.238;stroke-linecap:round;stroke-linejoin:miter;stroke-miterlimit:4;stroke-dasharray:none;stroke-dashoffset:0;stroke-opacity:1;stop-color:#000000;stop-opacity:1"
       d="M 102.74903,70.466232 C 96.938674,69.926678 91.563669,67.417618 87.265158,63.238345 82.558935,58.66267 79.730915,52.918243 78.823717,46.091631 78.64761,44.766433 78.622366,40.62668 78.782468,39.32733 c 0.593987,-4.820674 2.03766,-8.899406 4.482222,-12.6634 2.20953,-3.402102 4.978662,-6.153925 8.335618,-8.283514 1.009187,-0.640207 3.536839,-1.900452 4.581059,-2.284037 7.901313,-2.902476 16.349983,-1.816938 23.259563,2.98853 2.44267,1.698831 4.95192,4.211719 6.68614,6.695837 2.96296,4.244176 4.71315,9.168479 5.14063,14.463601 0.1143,1.415664 0.0508,4.551545 -0.11795,5.829601 -0.95944,7.264501 -4.11241,13.353743 -9.32696,18.012894 -4.08205,3.647274 -9.25026,5.890485 -14.70842,6.384055 -1.04012,0.09405 -3.32859,0.09161 -4.36534,-0.0047 z"
       id="path1172" />
    <path
       style="font-variation-settings:normal;opacity:1;vector-effect:none;fill:#216778;fill-opacity:1;stroke:#000000;stroke-width:0.237822;stroke-linecap:round;stroke-linejoin:miter;stroke-miterlimit:4;stroke-dasharray:none;stroke-dashoffset:0;stroke-opacity:1;-inkscape-stroke:none;stop-color:#000000;stop-opacity:1"
       d="m 112.58086,70.306643 c 1.77118,-0.53509 4.13214,-1.592214 5.82045,-2.606111 3.83567,-2.30347 7.21558,-5.712878 9.57885,-9.662451 2.1487,-3.590964 3.44869,-7.394308 4.03562,-11.806822 0.16712,-1.256353 0.23279,-4.710483 0.11687,-6.146879 -0.9573,-11.862522 -8.58974,-21.828419 -19.35515,-25.272547 l -1.06184,-0.339712 5.58448,0.02909 c 6.00232,0.03126 6.17781,0.04135 8.45938,0.48622 5.6123,1.094308 11.13289,4.436043 14.87184,9.002241 6.3366,7.738589 8.26009,18.197798 5.10609,27.765094 -0.54397,1.650087 -0.91921,2.548705 -1.74073,4.168698 -3.91729,7.724691 -11.16,13.087268 -19.38169,14.350421 -1.57983,0.242718 -2.59645,0.279146 -7.66883,0.274799 l -5.15188,-0.0044 0.78654,-0.237622 z"
       id="path1174" />
    <text
       xml:space="preserve"
       style="font-size:11.2889px;font-family:'Cambria Math';-inkscape-font-specification:'Cambria Math, Normal';font-variation-settings:normal;opacity:1;fill:#37abc8;fill-opacity:1;stroke:none;stroke-width:0.799999;stroke-linecap:round;stroke-linejoin:miter;stroke-miterlimit:4;stroke-dasharray:none;stroke-dashoffset:0;stroke-opacity:1;stop-color:#000000;stop-opacity:1"
       x="107.24273"
       y="12.184669"
       id="text3553"><tspan
         sodipodi:role="line"
         id="tspan3551"
         style="fill:#37abc8;fill-opacity:1;stroke:none;stroke-width:0.8"
         x="107.24273"
         y="12.184669"
         dx="0 0 -1.7304024">∂ V</tspan></text>
    <text
       xml:space="preserve"
       style="font-size:11.2889px;font-family:'Cambria Math';-inkscape-font-specification:'Cambria Math, Normal';font-variation-settings:normal;fill:#000000;fill-opacity:1;stroke:none;stroke-width:0.3;stroke-linecap:round;stroke-linejoin:miter;stroke-miterlimit:4;stroke-dasharray:none;stroke-dashoffset:0;stroke-opacity:1;stop-color:#000000"
       x="33.255486"
       y="45.585674"
       id="text3553-7"><tspan
         sodipodi:role="line"
         id="tspan3551-1"
         style="fill:#000000;fill-opacity:1;stroke:none;stroke-width:0.3;stroke-dasharray:none"
         x="33.255486"
         y="45.585674">A</tspan></text>
    <text
       xml:space="preserve"
       style="font-size:11.2889px;font-family:'Cambria Math';-inkscape-font-specification:'Cambria Math, Normal';font-variation-settings:normal;fill:#000000;fill-opacity:1;stroke:none;stroke-width:0.3;stroke-linecap:round;stroke-linejoin:miter;stroke-miterlimit:4;stroke-dasharray:none;stroke-dashoffset:0;stroke-opacity:1;stop-color:#000000"
       x="100.97208"
       y="46.326134"
       id="text3553-7-6"><tspan
         sodipodi:role="line"
         id="tspan3551-1-9"
         style="fill:#000000;fill-opacity:1;stroke:none;stroke-width:0.3;stroke-dasharray:none"
         x="100.97208"
         y="46.326134">V</tspan></text>
    <path
       style="font-variation-settings:normal;opacity:1;fill:none;fill-opacity:1;stroke:#000000;stroke-width:0.799999;stroke-linecap:round;stroke-linejoin:miter;stroke-miterlimit:4;stroke-dasharray:none;stroke-dashoffset:0;stroke-opacity:1;marker-end:url(#TriangleStart);stop-color:#000000;stop-opacity:1"
       d="M 104.80331,8.716815 C 91.541587,10.705873 88.552718,16.962118 94.569737,26.95927"
       id="path3659"
       sodipodi:nodetypes="cc" />
    <path
       style="font-variation-settings:normal;opacity:1;fill:none;fill-opacity:1;stroke:#000000;stroke-width:0.799999;stroke-linecap:round;stroke-linejoin:miter;stroke-miterlimit:4;stroke-dasharray:none;stroke-dashoffset:0;stroke-opacity:1;marker-end:url(#TriangleStart);stop-color:#000000;stop-opacity:1"
       d="m 123.66711,8.8907485 c 10.45453,2.4545105 24.98074,5.7086945 13.68185,18.8199855"
       id="path3661"
       sodipodi:nodetypes="cc" />
    <text
       xml:space="preserve"
       style="font-size:11.2889px;font-family:'Cambria Math';-inkscape-font-specification:'Cambria Math, Normal';font-variation-settings:normal;fill:#d35600;fill-opacity:1;stroke:none;stroke-width:0.799999;stroke-linecap:round;stroke-linejoin:miter;stroke-miterlimit:4;stroke-dasharray:none;stroke-dashoffset:0;stroke-opacity:1;stop-color:#000000"
       x="29.901554"
       y="12.184669"
       id="text3553-1"><tspan
         sodipodi:role="line"
         id="tspan3551-0"
         style="fill:#d35600;fill-opacity:1;stroke:none;stroke-width:0.8"
         x="29.901554"
         y="12.184669"
         dx="0 0 -2.3596396">∂ A</tspan></text>
    <path
       style="fill:none;stroke:#000000;stroke-width:1.2;stroke-linecap:round;stroke-dasharray:none"
       d="M 55.19439,231.12628 V 151.7512"
       id="path4" />
    <path
       style="fill:none;stroke:#000000;stroke-width:1.2;stroke-linecap:round;stroke-dasharray:none"
       d="m 117.80349,151.7512 v 79.37508"
       id="path5" />
    <text
       xml:space="preserve"
       style="font-size:11.2889px;font-family:'Cambria Math';-inkscape-font-specification:'Cambria Math, Normal';fill:none;stroke:#000000;stroke-width:1.2;stroke-linecap:round"
       x="-113.1054"
       y="116.72352"
       id="text2"><tspan
         sodipodi:role="line"
         id="tspan2"
         style="stroke-width:1.2"
         x="-113.1054"
         y="116.72352" /></text>
    <g
       inkscape:label=""
       transform="translate(85.758988,234.51057)"
       id="g11"
       style="stroke:#502d16;fill:#502d16">
      <g
         fill="#000000"
         fill-opacity="1"
         id="g2"
         transform="matrix(0.352778,0,0,0.352778,-1.13303,-0.614936)"
         style="stroke:#502d16;fill:#502d16">
        <g
           id="use1"
           transform="translate(1.993,12.665)"
           style="stroke:#502d16;fill:#502d16">
          <path
             d="m 7.453125,-1.09375 c -0.421875,0 -0.78125,0 -0.78125,-0.125 0,-0.046875 0.421875,-2.375 0.5625,-2.921875 C 8.03125,-7.3125 9.90625,-9.59375 12.0625,-9.59375 c 1.609375,0 2.359375,1.21875 2.359375,2.578125 0,2.828125 -3.171875,5.921875 -6.96875,5.921875 z m -1.0625,1.296875 C 6.546875,0.21875 6.796875,0.25 7.234375,0.25 c 4.0625,0 7.8125,-3.921875 7.8125,-7.828125 0,-1.515625 -0.671875,-3.34375 -2.75,-3.34375 -3.578125,0 -5.078125,5.03125 -6.46875,9.6875 -2.859375,-0.546875 -4.046875,-2.0625 -4.046875,-3.71875 0,-0.671875 0.515625,-3.328125 1.953125,-5.109375 0.28125,-0.328125 0.28125,-0.375 0.28125,-0.421875 0,-0.203125 -0.203125,-0.203125 -0.25,-0.203125 -0.671875,0 -2.546875,3.625 -2.546875,5.984375 0,2.765625 2.171875,4.28125 4.1875,4.734375 l -1.296875,4.1875 c -0.125,0.359375 -0.125,0.421875 -0.125,0.515625 0,0.59375 0.59375,0.625 0.65625,0.625 C 4.875,5.359375 5.328125,5.25 5.53125,4.765625 5.59375,4.53125 6.296875,0.6875 6.390625,0.203125 Z m 0,0"
             id="path2"
             style="stroke:#502d16;fill:#502d16" />
        </g>
      </g>
    </g>
    <text
       xml:space="preserve"
       style="font-size:11.2889px;font-family:'Cambria Math';-inkscape-font-specification:'Cambria Math, Normal';fill:#000000;stroke:none;stroke-width:1.2;stroke-linecap:round"
       x="38.449848"
       y="271.91626"
       id="text11"><tspan
         sodipodi:role="line"
         id="tspan11"
         style="fill:#000000;stroke:none;stroke-width:1.2"
         x="38.449848"
         y="271.91626">x</tspan></text>
    <text
       xml:space="preserve"
       style="font-size:11.2889px;font-family:'Cambria Math';-inkscape-font-specification:'Cambria Math, Normal';fill:#000000;stroke:none;stroke-width:1.2;stroke-linecap:round"
       x="150.5155"
       y="241.19466"
       id="text11-0"><tspan
         sodipodi:role="line"
         id="tspan11-0"
         style="fill:#000000;stroke:none;stroke-width:1.2"
         x="150.5155"
         y="241.19466">y</tspan></text>
    <text
       xml:space="preserve"
       style="font-size:7.76111px;font-family:'Cambria Math';-inkscape-font-specification:'Cambria Math, Normal';fill:#000000;stroke:none;stroke-width:1.2;stroke-linecap:round"
       x="100.20408"
       y="236.17783"
       id="text11-0-4"><tspan
         sodipodi:role="line"
         id="tspan11-0-2"
         style="font-size:7.76111px;fill:#502d16;stroke:none;stroke-width:1.2"
         x="100.20408"
         y="236.17783">r</tspan></text>
    <text
       xml:space="preserve"
       style="font-size:7.76111px;font-family:'Cambria Math';-inkscape-font-specification:'Cambria Math, Normal';fill:#000000;stroke:none;stroke-width:1.2;stroke-linecap:round"
       x="112.33461"
       y="198.21089"
       id="text11-0-4-5"><tspan
         sodipodi:role="line"
         id="tspan11-0-2-7"
         style="font-size:7.76111px;fill:#502d16;stroke:none;stroke-width:1.2"
         x="112.33461"
         y="198.21089">z</tspan></text>
    <text
       xml:space="preserve"
       style="font-size:11.2889px;font-family:'Cambria Math';-inkscape-font-specification:'Cambria Math, Normal';fill:#000000;stroke:none;stroke-width:1.2;stroke-linecap:round"
       x="91.413292"
       y="114.45241"
       id="text11-0-6"><tspan
         sodipodi:role="line"
         id="tspan11-0-8"
         style="fill:#000000;stroke:none;stroke-width:1.2"
         x="91.413292"
         y="114.45241">z</tspan></text>
    <g
       id="g33"
       transform="translate(-6.15501,5.37334)">
      <path
         style="fill:none;stroke:#800080;stroke-width:1;stroke-linecap:round;stroke-dasharray:none;marker-start:url(#ArrowWide)"
         d="m 137.85723,168.79783 -21.341,-11.89567"
         id="path13"
         sodipodi:nodetypes="cc" />
      <path
         style="fill:none;stroke:#800080;stroke-width:1;stroke-linecap:round;stroke-dasharray:none;marker-end:url(#ArrowWide)"
         d="m 116.51623,156.90216 19.52355,-16.26119"
         id="path15" />
      <path
         style="fill:none;stroke:#800080;stroke-width:1;stroke-linecap:round;stroke-dasharray:none;marker-end:url(#ArrowWide)"
         d="M 116.51623,156.90216 V 129.85123"
         id="path16" />
      <g
         inkscape:label=""
         transform="translate(138.69323,140.99726)"
         id="g26">
        <g
           fill="#000000"
           fill-opacity="1"
           id="g23"
           transform="matrix(0.352778,0,0,0.352778,-0.973182,-0.63156)">
          <g
             id="g22"
             transform="translate(1.993,13.009)">
            <path
               d="m 11.203125,-5.484375 c 0.5625,0 0.71875,0 0.71875,-0.609375 0,-0.75 -0.171875,-2.609375 -1.3125,-3.765625 -1.046875,-1.046875 -2.4375,-1.359375 -3.875,-1.359375 -3.859375,0 -5.96875,2.515625 -5.96875,5.640625 0,3.46875 2.5625,5.734375 6.296875,5.734375 3.734375,0 4.859375,-2.640625 4.859375,-3.0625 0,-0.359375 -0.375,-0.359375 -0.515625,-0.359375 -0.40625,0 -0.421875,0.0625 -0.578125,0.390625 -0.640625,1.609375 -2.28125,2.125 -3.46875,2.125 -3.59375,0 -3.625,-3.34375 -3.625,-4.734375 z M 3.734375,-6.1875 c 0.0625,-1.03125 0.078125,-1.984375 0.609375,-2.875 0.46875,-0.796875 1.328125,-1.34375 2.390625,-1.34375 2.65625,0 2.875,2.96875 2.90625,4.21875 z m 0,0"
               id="path22" />
          </g>
        </g>
        <g
           fill="#000000"
           fill-opacity="1"
           id="g25"
           transform="matrix(0.352778,0,0,0.352778,-0.973182,-0.63156)">
          <g
             id="g24"
             transform="translate(14.716,16.726999)">
            <path
               d="m 6.21875,-0.90625 c -0.359375,0 -0.65625,0 -0.65625,-0.109375 0,-0.03125 0.34375,-1.984375 0.46875,-2.4375 C 6.6875,-6.09375 8.265625,-8 10.0625,-8 c 1.34375,0 1.953125,1.015625 1.953125,2.15625 0,2.359375 -2.640625,4.9375 -5.796875,4.9375 z M 5.328125,0.171875 c 0.125,0.015625 0.328125,0.03125 0.703125,0.03125 3.390625,0 6.5,-3.265625 6.5,-6.53125 0,-1.25 -0.546875,-2.78125 -2.28125,-2.78125 -2.984375,0 -4.234375,4.1875 -5.390625,8.078125 -2.375,-0.453125 -3.375,-1.71875 -3.375,-3.09375 0,-0.5625 0.4375,-2.78125 1.640625,-4.265625 0.21875,-0.265625 0.21875,-0.3125 0.21875,-0.34375 0,-0.171875 -0.15625,-0.171875 -0.203125,-0.171875 -0.5625,0 -2.125,3.015625 -2.125,4.984375 0,2.3125 1.8125,3.578125 3.484375,3.9375 l -1.078125,3.5 c -0.09375,0.3125 -0.09375,0.34375 -0.09375,0.4375 0,0.484375 0.5,0.515625 0.53125,0.515625 0.203125,0 0.578125,-0.09375 0.75,-0.5 C 4.671875,3.78125 5.25,0.578125 5.328125,0.171875 Z m 0,0"
               id="path23" />
          </g>
        </g>
      </g>
      <g
         inkscape:label=""
         transform="translate(131.36608,170.68893)"
         id="g27">
        <g
           fill="#000000"
           fill-opacity="1"
           id="g3"
           transform="matrix(0.352778,0,0,0.352778,-0.973182,-0.63156)">
          <g
             id="use2"
             transform="translate(1.993,13.009)">
            <path
               d="m 11.203125,-5.484375 c 0.5625,0 0.71875,0 0.71875,-0.609375 0,-0.75 -0.171875,-2.609375 -1.3125,-3.765625 -1.046875,-1.046875 -2.4375,-1.359375 -3.875,-1.359375 -3.859375,0 -5.96875,2.515625 -5.96875,5.640625 0,3.46875 2.5625,5.734375 6.296875,5.734375 3.734375,0 4.859375,-2.640625 4.859375,-3.0625 0,-0.359375 -0.375,-0.359375 -0.515625,-0.359375 -0.40625,0 -0.421875,0.0625 -0.578125,0.390625 -0.640625,1.609375 -2.28125,2.125 -3.46875,2.125 -3.59375,0 -3.625,-3.34375 -3.625,-4.734375 z M 3.734375,-6.1875 c 0.0625,-1.03125 0.078125,-1.984375 0.609375,-2.875 0.46875,-0.796875 1.328125,-1.34375 2.390625,-1.34375 2.65625,0 2.875,2.96875 2.90625,4.21875 z m 0,0"
               id="path26" />
          </g>
        </g>
        <g
           fill="#000000"
           fill-opacity="1"
           id="g4"
           transform="matrix(0.352778,0,0,0.352778,-0.973182,-0.63156)">
          <g
             id="use3"
             transform="translate(14.716,16.726999)">
            <path
               d="m 4.296875,-4.640625 c 0,-0.6875 0.140625,-3.96875 2.5625,-3.96875 -0.296875,0.21875 -0.4375,0.578125 -0.4375,0.953125 0,0.84375 0.6875,1.1875 1.203125,1.1875 0.515625,0 1.1875,-0.34375 1.1875,-1.1875 C 8.8125,-8.71875 7.75,-9.296875 6.75,-9.296875 5.125,-9.296875 4.421875,-7.875 4.125,-7 H 4.109375 V -9.296875 L 0.71875,-9.125 v 0.890625 c 1.28125,0 1.421875,0 1.421875,0.796875 v 6.546875 H 0.71875 V 0 C 1.203125,-0.046875 2.75,-0.046875 3.328125,-0.046875 c 0.59375,0 2.265625,0 2.765625,0.046875 V -0.890625 H 4.296875 Z m 0,0"
               id="path27" />
          </g>
        </g>
      </g>
      <g
         inkscape:label=""
         transform="translate(121.74625,127.41872)"
         id="g32">
        <g
           fill="#000000"
           fill-opacity="1"
           id="g29"
           transform="matrix(0.352778,0,0,0.352778,-0.973182,-0.63156)">
          <g
             id="g28"
             transform="translate(1.993,13.009)">
            <path
               d="m 11.203125,-5.484375 c 0.5625,0 0.71875,0 0.71875,-0.609375 0,-0.75 -0.171875,-2.609375 -1.3125,-3.765625 -1.046875,-1.046875 -2.4375,-1.359375 -3.875,-1.359375 -3.859375,0 -5.96875,2.515625 -5.96875,5.640625 0,3.46875 2.5625,5.734375 6.296875,5.734375 3.734375,0 4.859375,-2.640625 4.859375,-3.0625 0,-0.359375 -0.375,-0.359375 -0.515625,-0.359375 -0.40625,0 -0.421875,0.0625 -0.578125,0.390625 -0.640625,1.609375 -2.28125,2.125 -3.46875,2.125 -3.59375,0 -3.625,-3.34375 -3.625,-4.734375 z M 3.734375,-6.1875 c 0.0625,-1.03125 0.078125,-1.984375 0.609375,-2.875 0.46875,-0.796875 1.328125,-1.34375 2.390625,-1.34375 2.65625,0 2.875,2.96875 2.90625,4.21875 z m 0,0"
               id="path28" />
          </g>
        </g>
        <g
           fill="#000000"
           fill-opacity="1"
           id="g31"
           transform="matrix(0.352778,0,0,0.352778,-0.973182,-0.63156)">
          <g
             id="g30"
             transform="translate(14.716,16.726999)">
            <path
               d="m 9.09375,-8.390625 c 0.1875,-0.21875 0.1875,-0.265625 0.1875,-0.390625 0,-0.390625 -0.21875,-0.390625 -0.609375,-0.390625 H 1.203125 L 0.96875,-5.625 h 0.875 c 0.125,-1.953125 0.578125,-2.859375 2.859375,-2.859375 H 6.5625 l -5.734375,7.65625 C 0.640625,-0.59375 0.640625,-0.5625 0.640625,-0.40625 0.640625,0 0.828125,0 1.234375,0 h 7.75 L 9.34375,-4.09375 h -0.875 C 8.296875,-1.90625 7.84375,-0.75 5.25,-0.75 H 3.359375 Z m 0,0"
               id="path29" />
          </g>
        </g>
      </g>
    </g>
    <path
       style="fill:#554400;stroke:#502d16;stroke-width:1;stroke-linecap:round;stroke-dasharray:3, 3;stroke-dashoffset:0"
       d="M 110.36122,241.65057 86.49894,231.12628"
       id="path35" />
    <path
       style="fill:none;stroke:#502d16;stroke-width:1.5;stroke-linecap:round;stroke-dasharray:none;marker-end:url(#ArrowWideHeavy)"
       d="M 86.49894,231.12628 110.36122,162.2755"
       id="path12"
       sodipodi:nodetypes="cc" />
    <g
       id="g12"
       transform="translate(213.12528,122.35794)">
      <path
         style="fill:none;stroke:#000000;stroke-width:1.2;stroke-linecap:round;stroke-dasharray:none;marker-end:url(#ArrowTriangleStylized)"
         d="m -126.62634,108.76834 -38.29942,38.29941"
         id="path6"
         sodipodi:nodetypes="cc" />
      <path
         style="fill:none;stroke:#000000;stroke-width:1.2;stroke-linecap:round;stroke-dasharray:none;marker-end:url(#ArrowTriangleStylized)"
         d="m -126.62634,108.76834 h 65.396105"
         id="path7"
         sodipodi:nodetypes="cc" />
      <path
         style="fill:none;stroke:#000000;stroke-width:1.2;stroke-linecap:round;stroke-dasharray:none;marker-end:url(#ArrowTriangleStylized)"
         d="M -126.62634,108.76834 V -7.563945"
         id="path9" />
    </g>
    <ellipse
       style="fill:none;stroke:#000000;stroke-width:1.2;stroke-linecap:round;stroke-dasharray:none"
       id="path1-96-3"
       cx="86.49894"
       cy="231.12628"
       rx="31.304554"
       ry="16.259552" />
    <g
       inkscape:label=""
       transform="matrix(1.6794941,0,0,1.6794941,91.34628,189.75729)"
       id="g39"
       style="fill:#502d16">
      <g
         fill="#000000"
         fill-opacity="1"
         id="g38"
         transform="matrix(0.352778,0,0,0.352778,-1.01177,-0.653256)"
         style="fill:#502d16">
        <g
           id="g37"
           transform="translate(1.993,13.008)"
           style="fill:#502d16">
          <path
             d="m 5.15625,-5.578125 c 0,-0.8125 0.171875,-4.75 3.078125,-4.75 -0.359375,0.265625 -0.53125,0.6875 -0.53125,1.140625 0,1.015625 0.828125,1.4375 1.4375,1.4375 0.625,0 1.4375,-0.421875 1.4375,-1.4375 0,-1.265625 -1.28125,-1.96875 -2.46875,-1.96875 -1.96875,0 -2.8125,1.71875 -3.15625,2.75 H 4.9375 v -2.75 l -4.0625,0.203125 v 1.0625 c 1.53125,0 1.703125,0 1.703125,0.96875 V -1.0625 H 0.875 V 0 c 0.5625,-0.046875 2.421875,-0.046875 3.109375,-0.046875 0.71875,0 2.734375,0 3.328125,0.046875 V -1.0625 H 5.15625 Z m 0,0"
             id="path37"
             style="fill:#502d16" />
        </g>
      </g>
    </g>
  </g>
</svg>
